<svg width="225" height="43" viewBox="0 0 225 43" fill="none" xmlns="http://www.w3.org/2000/svg">
<path d="M27.6726 0.66819L27.8866 0.810051C30.232 2.36258 32.1203 2.64685 34.9941 2.64685C36.007 2.64685 37.0937 2.45644 38.1353 2.09698L38.408 2.00259L39.7705 3.91191L39.6303 4.09911C34.5684 10.825 38.5158 18.0863 41.3095 20.985L41.5678 21.2533L41.3045 21.5162C40.938 21.882 40.3034 22.5418 39.8322 23.0362L39.6728 23.2042L39.6831 23.4351L39.6855 23.5156C39.688 23.5743 39.6899 23.6351 39.702 23.7412L39.7064 23.7834C39.9428 28.2692 38.7803 31.9541 36.2512 34.7343C33.5634 37.689 29.3243 39.4676 24.3149 39.7428L24.1218 39.7535L23.9786 39.8842C22.7031 41.0452 21.4082 42.0095 21.3945 42.0202L21.1687 42.1887L20.9428 42.0212C20.8893 41.9807 19.6105 41.0298 18.3514 39.8842L18.2087 39.7535L18.0153 39.7428C13.0057 39.4676 8.76637 37.689 6.07864 34.7343C3.54887 31.953 2.38658 28.2682 2.62408 23.7823L2.62741 23.7396C2.63908 23.6404 2.64137 23.5855 2.64387 23.5231L2.64429 23.5066L2.64449 23.5044L2.64679 23.4351L2.65679 23.2042L2.49741 23.0362C2.05304 22.5695 1.40095 21.8906 1.02554 21.5162L0.762207 21.2533L1.02054 20.985C3.81471 18.0863 7.76114 10.825 2.69971 4.09911L2.55887 3.91191L3.92221 2.00259L4.19471 2.09698C5.23637 2.45644 6.32242 2.64685 7.33597 2.64685C10.2095 2.64685 12.0976 2.36258 14.4432 0.810051L14.6576 0.66819L14.8682 0.814323C16.9376 2.25059 18.9385 2.91885 21.1651 2.91885C23.3918 2.91885 25.392 2.25059 27.4616 0.814323L27.6726 0.66819Z" fill="#D4AF18"/>
<path d="M5.75155 17.2764C7.33742 13.6396 7.92782 8.96916 5.26074 4.40436C5.92718 4.52276 6.62659 4.59637 7.33555 4.59637C10.0651 4.59637 12.2143 4.34784 14.628 2.98357C16.5312 4.13504 18.6632 4.86624 21.1599 4.86837C23.6657 4.86624 25.7974 4.13504 27.7007 2.98357C30.1149 4.34784 32.2641 4.59637 34.9937 4.59637C35.7024 4.59637 36.4018 4.52277 37.0749 4.39317C34.4016 8.96916 34.9914 13.6396 36.5774 17.2764H5.75155Z" fill="white"/>
<path d="M36.5785 17.2764C34.9924 13.6396 34.4026 8.96916 37.076 4.39317C36.4028 4.52277 35.7035 4.59637 34.9947 4.59637C32.2651 4.59637 30.116 4.34784 27.7018 2.98357C25.7985 4.13504 23.6668 4.86624 21.161 4.86837C21.1368 4.86837 21.1132 4.86731 21.0889 4.86731V17.2764H36.5785Z" fill="#FBCF17"/>
<path d="M33.1826 34.8501C36.2202 32.6298 38.0143 29.0842 37.7508 23.912C37.7202 23.6181 37.698 23.601 37.6747 23.3045H33.1826V34.8501Z" fill="#29408D"/>
<path d="M28.3765 37.0757C30.1846 36.5872 31.8119 35.8533 33.1846 34.8496V23.3045H28.3765V37.0757Z" fill="#811944"/>
<path d="M9.14502 34.8496C10.5186 35.8533 12.1452 36.5872 13.954 37.0757V23.3045H9.14502V34.8496Z" fill="#811944"/>
<path d="M4.57876 23.9119C4.31522 29.0842 6.10919 32.6298 9.14711 34.8506V23.3045H4.65417C4.63084 23.601 4.60938 23.618 4.57876 23.9119Z" fill="#29408D"/>
<path d="M21.1767 25.8576C22.0565 25.8576 22.8744 26.1125 23.5695 26.5461V23.3045H18.7607V26.5605C19.4607 26.1179 20.2876 25.8576 21.1767 25.8576Z" fill="#811944"/>
<path d="M21.1767 34.9179C20.2876 34.9179 19.4607 34.6582 18.7607 34.215V37.8011C18.8459 37.8054 18.9299 37.8112 19.0151 37.8155C20.6124 37.8235 22.0605 37.8326 23.3151 37.8155C23.4005 37.8112 23.4845 37.8054 23.5695 37.8011V34.2299C22.8744 34.6635 22.0565 34.9179 21.1767 34.9179Z" fill="#811944"/>
<path d="M23.5688 23.3045V26.5456C24.8511 27.3456 25.7072 28.7653 25.7072 30.3882C25.7072 32.0106 24.8511 33.4298 23.5688 34.2298V37.801C25.2668 37.7152 26.8835 37.4784 28.3774 37.0757V23.3045H23.5688Z" fill="#29408D"/>
<path d="M16.6471 30.3882C16.6471 28.7749 17.4925 27.3632 18.7621 26.5594V23.3045H13.9531V37.0757C15.4469 37.4784 17.064 37.7152 18.7621 37.801V34.216C17.4925 33.4128 16.6471 32.001 16.6471 30.3882Z" fill="#29408D"/>
<path d="M6.83594 8.48117C7.15844 10.055 7.16927 11.6001 6.96196 13.0689H11.6328V17.2764H16.2201V13.0689H21.1083V8.48117H16.2201V3.81504C15.672 3.57291 15.1417 3.29344 14.6293 2.98357C13.6043 3.56277 12.6268 3.9393 11.6328 4.1825V8.48117H6.83594Z" fill="#CF193B"/>
<path d="M30.9796 17.2764V4.24703C30.4269 4.1265 29.8804 3.96597 29.3311 3.75423V17.2764H30.9796Z" fill="#CF193B"/>
<path d="M24.3858 17.2764V4.4337C23.855 4.58037 23.3061 4.69236 22.7373 4.76543V17.2764H24.3858Z" fill="#CF193B"/>
<path d="M34.2777 17.2764V4.58837C33.708 4.57771 33.1604 4.55103 32.6294 4.5009V17.2764H34.2777Z" fill="#CF193B"/>
<path d="M27.6826 17.2764V2.99423C27.1521 3.31423 26.6031 3.60063 26.0342 3.84863V17.2764H27.6826Z" fill="#CF193B"/>
<path d="M39.2756 23.0634C39.3227 23.5295 39.2952 23.5114 39.3275 23.7839C39.8781 34.1263 32.6731 39.0095 23.9658 39.3706C22.635 40.6138 21.1689 41.7066 21.1689 41.7066C21.1689 41.7066 19.6958 40.6138 18.3648 39.3706C9.65727 39.0095 2.45208 34.1263 3.00292 23.7839C3.03521 23.5114 3.00791 23.5295 3.05521 23.0634C2.55604 22.5354 1.72979 21.6735 1.29354 21.2378C4.41666 17.9973 8.06085 10.5829 3.0025 3.86072L4.07083 2.44418C5.08187 2.79352 6.20645 3.01486 7.33626 3.01486C10.2368 3.01486 12.2175 2.72739 14.6529 1.11459C16.5779 2.45112 18.6652 3.28792 21.1654 3.28792C23.6654 3.28792 25.7529 2.45112 27.6781 1.11459C30.1129 2.72739 32.0931 3.01486 34.9944 3.01486C36.1237 3.01486 37.2483 2.79352 38.2598 2.44418L39.3277 3.86072C34.2694 10.5829 37.9137 17.9973 41.0375 21.2378C40.6008 21.6735 39.7745 22.5354 39.2756 23.0634ZM42.3306 21.2506L41.7018 20.5973C39.0185 17.8138 35.2244 10.8495 40.065 4.41539L40.445 3.91032L38.6147 1.34552L37.9585 1.57219C36.9727 1.91299 35.9477 2.09219 34.9944 2.09219C32.2294 2.09219 30.4175 1.82233 28.1873 0.345528L27.6656 -7.24792e-05L27.1517 0.357258C25.1777 1.72686 23.276 2.36472 21.1654 2.36472C19.055 2.36472 17.1525 1.72686 15.1789 0.357258L14.6652 -7.24792e-05L14.1434 0.345528C11.9133 1.82233 10.1014 2.09219 7.33626 2.09219C6.38272 2.09219 5.3577 1.91299 4.37208 1.57219L3.71583 1.34552L1.885 3.90978L2.265 4.41539C7.10624 10.8495 3.31188 17.8138 0.629168 20.5973L0 21.2506L0.641669 21.8906C0.986458 22.2346 1.59812 22.8698 2.10375 23.4015C2.10229 23.4319 2.10167 23.458 2.10062 23.4842C2.09875 23.5396 2.09729 23.5855 2.08687 23.6746L2.08167 23.7349C1.83437 28.3749 3.04416 32.1957 5.67648 35.0901C8.46709 38.1578 12.8283 39.9925 17.9858 40.2757C19.2635 41.4394 20.5608 42.4042 20.6189 42.4474L21.1702 42.8564L21.7202 42.4458C21.7779 42.4031 23.0683 41.4383 24.3448 40.2757C29.5023 39.9925 33.8635 38.1578 36.6537 35.0901C39.2864 32.1957 40.4958 28.3754 40.2492 23.7349L40.2435 23.6746C40.2329 23.585 40.2314 23.5391 40.23 23.4831C40.2289 23.458 40.2279 23.4319 40.2269 23.4015C40.7327 22.8698 41.3448 22.2346 41.6892 21.8906L42.3306 21.2506Z" fill="#040606"/>
<path d="M4.71698 23.9263C4.73052 23.7978 4.74198 23.7231 4.75282 23.6543C4.76261 23.5909 4.77198 23.5317 4.78115 23.4437H37.5497C37.5592 23.5327 37.5686 23.5909 37.5782 23.6549C37.5893 23.7231 37.6009 23.7978 37.6141 23.9194C37.8126 27.8197 36.8434 30.9706 34.7332 33.2858C32.304 35.9493 28.3543 37.4682 23.3134 37.6767C22.1111 37.6933 20.7307 37.6863 19.2116 37.6783L19.0215 37.6767C13.9768 37.4682 10.0266 35.9493 7.59802 33.2858C5.48783 30.9717 4.51886 27.8197 4.71698 23.9263ZM4.51719 23.2938C4.50469 23.4517 4.49261 23.5274 4.47948 23.6122C4.46802 23.6842 4.45594 23.7626 4.44136 23.905C4.23844 27.8821 5.23198 31.1013 7.39365 33.4725C9.87322 36.1919 13.8901 37.7407 19.0151 37.9535L19.2101 37.9541C20.0628 37.9594 20.872 37.9631 21.6303 37.9631C22.2251 37.9631 22.7886 37.9605 23.3212 37.953C28.4412 37.7407 32.4578 36.1919 34.9374 33.4725C37.0992 31.1007 38.0928 27.8821 37.8893 23.8981C37.8753 23.7626 37.863 23.6842 37.8516 23.6122C37.8384 23.5274 37.8263 23.4517 37.8141 23.2938L37.8038 23.1658H4.52698L4.51719 23.2938Z" fill="#040606"/>
<path d="M5.52676 4.58846C6.15076 4.68553 6.75844 4.73406 7.337 4.73406C10.1442 4.73406 12.2441 4.47273 14.6272 3.14366C16.6624 4.36019 18.7401 4.97085 20.9695 5.00499V17.1378H5.96281C7.28009 14.0199 8.20846 9.3922 5.52676 4.58846ZM21.2462 5.00659C23.5219 4.99006 25.6368 4.38046 27.7049 3.14366C30.0878 4.47273 32.1874 4.73406 34.9951 4.73406C35.5893 4.73406 36.1982 4.68286 36.8099 4.58152C34.1255 9.39272 35.052 14.0199 36.369 17.1378H21.2462V5.00659ZM5.62633 17.2205L5.5418 17.4141H36.7899L36.7055 17.2205C35.3485 14.1079 34.3307 9.36713 37.1961 4.46313L37.3492 4.2002L37.0505 4.25779C36.3589 4.39112 35.667 4.45779 34.9951 4.45779C32.2059 4.45779 30.1301 4.19646 27.7707 2.86313L27.6999 2.82313L27.6305 2.86526C25.5595 4.1186 23.4432 4.72873 21.1616 4.72979C18.886 4.72873 16.7728 4.1186 14.7012 2.86526L14.632 2.82313L14.5616 2.86313C12.202 4.19646 10.1257 4.45779 7.337 4.45779C6.68574 4.45779 5.99572 4.39433 5.28657 4.26847L4.99219 4.2162L5.14302 4.47432C8.00238 9.36872 6.98409 14.1079 5.62633 17.2205Z" fill="#040606"/>
<path d="M17.2213 19.0742V18.1612H14.1279V22.447H15.0583V20.6796H16.3223V19.7734H15.0583V19.0742H17.2213Z" fill="#040606"/>
<path d="M20.8438 19.0194C21.1815 19.0194 21.4195 19.1602 21.5705 19.4503L21.5903 19.4887L22.4514 19.0919L22.4311 19.0503C22.1291 18.4258 21.5841 18.0951 20.8557 18.0951C19.7318 18.0951 18.9468 19.0039 18.9468 20.3042C18.9468 21.646 19.6843 22.5127 20.8255 22.5127C21.5697 22.5127 22.1063 22.1852 22.4188 21.5399L22.4374 21.5026L21.6551 21.0391L21.6318 21.0775C21.4093 21.4503 21.1974 21.589 20.8499 21.589C20.2822 21.589 19.9007 21.0722 19.9007 20.3042C19.9007 19.5122 20.2624 19.0194 20.8438 19.0194Z" fill="#040606"/>
<path d="M26.6624 21.5585H25.5937V20.5654H26.6624C27.0395 20.5654 27.216 20.7228 27.216 21.0598C27.216 21.3862 27.0241 21.5585 26.6624 21.5585ZM25.5937 19.0252H26.6143C27.0303 19.0252 27.0837 19.2156 27.0837 19.3809C27.0837 19.6166 26.9439 19.7313 26.6562 19.7313H25.5937V19.0252ZM28.0262 19.3153C28.0262 18.5932 27.5116 18.1612 26.6503 18.1612H24.6812V22.447H26.6318C27.5947 22.447 28.1699 21.9238 28.1699 21.047C28.1699 20.6401 27.9737 20.3078 27.6287 20.1244C27.8824 19.9404 28.0262 19.6497 28.0262 19.3153Z" fill="#040606"/>
<path d="M18.4044 26.9866C18.3233 27.3066 18.2452 27.586 18.1825 27.8708C17.9587 28.8964 17.9612 30.4399 18.7952 31.1999C18.5096 31.7119 17.9833 32.009 17.3394 32.009C17.2623 32.009 17.1873 32.0042 17.1133 31.994C16.9096 31.4906 16.7971 30.9402 16.7971 30.3631C16.7971 29.0004 17.4237 27.7839 18.4044 26.9866ZM23.6129 28.1658C22.8531 27.7418 21.8558 27.3535 21.1365 27.6527C20.5923 27.3146 20.4987 26.4634 21.1852 26.0132C23.4823 26.0319 25.3548 27.8324 25.49 30.1002C25.0796 29.3151 24.33 28.5668 23.6129 28.1658ZM23.2958 31.2431C23.289 31.0826 23.2517 30.914 23.1779 30.737C22.9464 30.185 22.1479 29.513 21.1471 30.2042C20.411 29.6506 20.456 28.8015 20.7808 28.2874C21.2864 27.4858 22.4363 27.8047 23.4867 28.3919C24.3387 28.8682 25.2315 29.8634 25.4796 30.7631C25.4373 31.2314 25.3206 31.6772 25.1416 32.0906C24.846 31.1695 23.8864 31.0351 23.2958 31.2431ZM18.3096 29.1626C18.2975 28.3103 18.5391 27.5631 18.7296 26.7466C19.3216 26.3492 20.0173 26.0943 20.7675 26.0298C20.2652 26.5775 20.3692 27.3796 20.8869 27.793C20.7654 27.882 20.6556 27.9994 20.5619 28.1487C20.1786 28.7556 20.1239 29.778 21.0146 30.4276C20.9604 30.9375 20.281 31.4388 19.8104 31.378C18.8021 31.249 18.3256 30.313 18.3096 29.1626ZM19.0021 31.3599C19.2154 31.4996 19.4715 31.5962 19.7773 31.6351C20.3812 31.7124 21.2212 31.1124 21.2746 30.4314C22.1054 29.8426 22.7458 30.3764 22.9391 30.8378C23.3202 31.7492 22.5177 32.4074 21.4844 33.0244C20.6846 33.5007 19.2898 33.729 18.3825 33.722C17.9025 33.3263 17.5087 32.8298 17.2342 32.2655C17.269 32.2671 17.3037 32.2682 17.3394 32.2682C18.0556 32.2682 18.6631 31.9396 19.0021 31.3599ZM21.1475 34.714C20.2485 34.714 19.4133 34.4404 18.7196 33.9738C19.6383 33.9311 20.8598 33.6975 21.6171 33.2452C22.3515 32.8079 23.1312 32.2618 23.2735 31.5322C23.8073 31.2655 24.8277 31.3914 24.9577 32.465C24.2165 33.8052 22.7881 34.714 21.1475 34.714ZM21.1475 34.9924C23.6996 34.9924 25.776 32.9156 25.776 30.3631C25.776 27.8116 23.6996 25.7343 21.1475 25.7343C18.5952 25.7343 16.5186 27.8116 16.5186 30.3631C16.5186 32.9156 18.5952 34.9924 21.1475 34.9924Z" fill="#040606"/>
<path d="M57.6518 14.4898C57.6518 13.1452 56.3713 12.6967 56.3713 12.6967H53.1484V16.2193H55.8593C57.0332 16.2193 57.6518 15.557 57.6518 14.4898ZM53.1484 6.82682V10.1991H56.3073C56.3073 10.1991 57.4385 9.77295 57.4385 8.44922C57.4385 7.55269 56.9478 6.82682 55.6881 6.82682H53.1484ZM60.4913 14.6396C60.4913 17.2434 59.0609 18.8018 55.774 18.8018H50.3306V4.28655H55.5814C59.0609 4.28655 60.2774 5.86576 60.2774 8.25723C60.2774 10.541 58.5916 11.4588 58.5916 11.4588V11.5015C58.5916 11.5015 60.4913 12.4839 60.4913 14.6396Z" fill="black"/>
<path d="M69.6049 13.3159L68.7511 10.0924C68.4092 8.74789 67.9825 6.86949 67.9825 6.86949H67.4065C67.4065 6.86949 66.9793 8.74789 66.6167 10.0924L65.7841 13.3372C66.3815 13.4439 67.022 13.5084 67.6625 13.5084C68.3239 13.5084 68.9644 13.4439 69.6049 13.3159ZM73.6396 17.1793V18.8018H71.0348L70.2455 15.7495C69.3916 15.9202 68.5377 16.0055 67.6625 16.0055C66.8087 16.0055 65.9548 15.9202 65.1436 15.7708L64.3537 18.8018H61.8135V17.1793L65.3783 4.28655H70.0748L73.6396 17.1793Z" fill="black"/>
<path d="M81.6196 10.6263C81.6196 10.6263 82.9641 10.285 82.9641 8.72655C82.9641 7.57402 82.2601 6.91215 81.0857 6.91215H78.3966V10.6263H81.6196ZM82.8788 12.9527C82.8788 12.9527 84.3092 15.5143 85.8036 17.0514V18.8018H83.5833C81.7689 16.8167 79.9118 13.2519 79.9118 13.2519H78.3966V18.8018H75.4932V4.28655H80.979C84.1385 4.28655 85.8676 5.78096 85.8676 8.59802C85.8676 11.9074 82.8788 12.9527 82.8788 12.9527Z" fill="black"/>
<path d="M90.3698 9.64455V13.444C90.3698 15.4291 90.9671 16.3688 92.8674 16.3688C94.6604 16.3688 94.8311 15.0664 94.8311 15.0664H97.2002V17.3294C97.2002 17.3294 96.1756 18.5459 93.9346 18.8659C93.9132 20.8723 92.7607 22.0894 92.7607 22.0894H90.8604V20.6595C90.8604 20.6595 91.6076 20.083 91.629 18.8659C88.918 18.4819 87.4663 16.7528 87.4663 13.38V9.70856C87.4663 5.8659 89.3666 4.13737 92.846 4.13737C95.8343 4.13737 97.2002 5.75976 97.2002 5.75976V8.02216H94.8311C94.8311 8.02216 94.6604 6.72029 92.8674 6.72029C90.9671 6.72029 90.3698 7.65949 90.3698 9.64455Z" fill="black"/>
<path d="M106.207 13.3159L105.353 10.0924C105.011 8.74789 104.584 6.86949 104.584 6.86949H104.008C104.008 6.86949 103.581 8.74789 103.218 10.0924L102.386 13.3372C102.983 13.4439 103.624 13.5084 104.264 13.5084C104.925 13.5084 105.566 13.4439 106.207 13.3159ZM110.241 17.1793V18.8018H107.636L106.847 15.7495C105.993 15.9202 105.139 16.0055 104.264 16.0055C103.41 16.0055 102.556 15.9202 101.745 15.7708L100.955 18.8018H98.415V17.1793L101.98 4.28655H106.676L110.241 17.1793Z" fill="black"/>
<path d="M122.162 17.892C124.721 17.892 126.093 16.5192 126.093 13.3576V9.65518C126.093 6.49305 124.721 5.12025 122.162 5.12025C119.604 5.12025 118.23 6.49305 118.23 9.65518V13.3576C118.23 16.5192 119.604 17.892 122.162 17.892ZM117.232 9.73837C117.232 6.07757 118.896 4.22584 122.162 4.22584C125.428 4.22584 127.092 6.07757 127.092 9.73837V13.2744C127.092 16.9352 125.428 18.7864 122.162 18.7864C118.896 18.7864 117.232 16.9352 117.232 13.2744V9.73837Z" fill="black"/>
<path d="M143.026 3.64345C143.505 3.64345 143.712 3.91385 143.712 4.30905V4.39224C143.712 4.76717 143.505 5.03704 143.026 5.03704C142.527 5.03704 142.319 4.76717 142.319 4.39224V4.30905C142.319 3.91385 142.527 3.64345 143.026 3.64345ZM131.149 8.09518V6.03544C131.149 3.51864 132.917 3.18584 132.917 3.18584H133.686V4.01784H133.603C132.876 4.01784 132.106 4.51704 132.106 6.11864V8.09518H136.973V6.03544C136.973 3.51864 138.741 3.18584 138.741 3.18584H139.511V4.01784H139.428C138.7 4.01784 137.93 4.51704 137.93 6.11864V8.09518H143.484V18.5784H142.527V8.96824H137.93V18.5784H136.973V8.96824H132.106V18.5784H131.149V8.96824H129.11V8.09518H131.149Z" fill="black"/>
<path d="M146.833 13.0245C146.833 9.30079 148.56 7.9904 151.118 7.9904C153.157 7.9904 154.134 8.8432 154.134 8.8432V9.61279H153.386C153.386 9.61279 152.7 8.88479 151.118 8.88479C148.997 8.88479 147.811 10.0085 147.811 13.0864V13.6069C147.811 16.6645 148.997 17.8085 151.118 17.8085C152.7 17.8085 153.386 17.08 153.386 17.08H154.134V17.8501C154.134 17.8501 153.157 18.6821 151.118 18.6821C148.56 18.6821 146.833 17.3925 146.833 13.6485V13.0245Z" fill="black"/>
<path d="M157.108 8.09518H158.065V18.5784H157.108V8.09518ZM157.608 3.64345C158.086 3.64345 158.294 3.91385 158.294 4.30905V4.39224C158.294 4.76717 158.086 5.03704 157.608 5.03704C157.108 5.03704 156.901 4.76717 156.901 4.39224V4.30905C156.901 3.91385 157.108 3.64345 157.608 3.64345Z" fill="black"/>
<path d="M167.884 16.5398V13.6694H164.847C162.808 13.6694 162.247 14.5638 162.247 15.7905C162.247 17.143 162.933 17.871 164.722 17.871C166.719 17.871 167.884 16.5398 167.884 16.5398ZM162.039 8.71899C162.039 8.73979 163.245 7.94886 165.326 7.94886C167.717 7.94886 168.841 9.07258 168.841 11.1936V18.5782H168.071L167.947 17.3926H167.905C167.905 17.3926 166.657 18.7451 164.493 18.7451C162.247 18.7451 161.29 17.5382 161.29 15.8118C161.29 14.023 162.143 12.8576 164.888 12.8576H167.884V11.2352C167.884 9.63418 166.99 8.84326 165.263 8.84326C163.557 8.84326 162.788 9.50885 162.788 9.50885H162.039V8.71899Z" fill="black"/>
<path d="M173.874 18.5784C173.874 18.5784 172.751 18.3288 172.751 16.8104V3.18584H173.707V16.7272C173.707 17.4136 174.061 17.7458 174.54 17.7458H174.748V18.5784H173.874Z" fill="black"/>
<path d="M181.676 17.1638H182.425C182.425 17.1638 183.236 17.8502 185.565 17.8502C187.957 17.8502 189.081 16.6854 189.081 14.8966C189.081 13.1281 187.999 12.4833 186.377 11.9638L184.9 11.4848C182.57 10.7158 181.884 9.48804 181.884 7.84484C181.884 5.57765 183.527 4.26725 186.169 4.26725C188.54 4.26725 189.747 5.09925 189.747 5.09925V5.91046H188.997C188.997 5.91046 188.145 5.16166 186.169 5.16166C184.026 5.16166 182.882 6.18085 182.882 7.82405C182.882 9.25925 183.61 10.0294 185.233 10.5489L186.709 11.0278C189.081 11.8177 190.038 12.816 190.08 14.8342C190.121 17.351 188.311 18.7451 185.586 18.7451C182.965 18.7451 181.676 17.9542 181.676 17.9542V17.1638Z" fill="black"/>
<path d="M191.598 8.09518H193.637V5.41198H194.593V8.09518H196.714V8.96824H194.593V16.1026C194.593 17.2056 195.113 17.7458 195.904 17.7458H196.237V18.5784H195.28C195.28 18.5784 193.637 18.3496 193.637 16.1656V8.96824H191.598V8.09518Z" fill="black"/>
<path d="M202.892 17.871C204.785 17.871 206.199 16.8518 206.199 13.5862V13.0864C206.199 9.82085 204.785 8.82245 202.892 8.82245C200.999 8.82245 199.585 9.82085 199.585 13.0864V13.5862C199.585 16.8518 200.999 17.871 202.892 17.871ZM198.607 13.0246C198.607 9.40538 200.396 7.92805 202.892 7.92805C205.388 7.92805 207.177 9.40538 207.177 13.0246V13.6486C207.177 17.2678 205.388 18.7451 202.892 18.7451C200.396 18.7451 198.607 17.2678 198.607 13.6486V13.0246Z" fill="black"/>
<path d="M211.193 8.09518L211.338 9.63437H211.38C211.38 9.63437 212.212 8.09518 214.313 8.09518H214.666V8.98958H214.105C212.254 8.98958 211.359 10.5906 211.359 10.5906V18.5784H210.402V8.09518H211.193Z" fill="black"/>
<path d="M217.203 12.8576H223.131C223.131 12.8576 223.173 12.5456 223.173 12.1296C223.173 9.86245 222.258 8.80165 220.261 8.80165C218.534 8.80165 217.203 9.82086 217.203 12.8161V12.8576ZM216.226 13.0662C216.226 9.57125 217.827 7.92805 220.261 7.92805C222.612 7.92805 224.151 9.15525 224.151 12.2342C224.151 12.8784 224.046 13.6694 224.046 13.6694H217.203V13.711C217.203 16.6438 218.389 17.871 220.594 17.871C222.258 17.871 223.049 17.2262 223.049 17.2262H223.797V17.9958C223.797 17.9958 222.715 18.7451 220.552 18.7451C217.931 18.7451 216.226 17.2262 216.226 13.6486V13.0662Z" fill="black"/>
<path d="M50.3306 35.3159H51.5008C51.5008 35.3159 51.8414 35.8786 53.2929 35.8786C54.7148 35.8786 55.2332 35.2567 55.2332 34.4124C55.2332 33.5831 54.759 33.1532 53.7964 32.8274L52.863 32.5015C50.9825 31.8647 50.4491 30.9618 50.4491 29.6727C50.4491 27.9106 51.7081 26.933 53.7814 26.933C55.47 26.933 56.5217 27.5399 56.5217 27.5399V28.8434H55.3222C55.3222 28.8434 54.9964 28.2658 53.7222 28.2658C52.5078 28.2658 51.9747 28.8141 51.9747 29.6285C51.9747 30.3842 52.3745 30.7543 53.3964 31.0946L54.3297 31.4204C56.1809 32.0722 56.7142 32.902 56.7436 34.294C56.7734 36.1452 55.574 37.2119 53.2929 37.2119C51.4564 37.2119 50.3306 36.6044 50.3306 36.6044V35.3159Z" fill="black"/>
<path d="M61.4095 35.8933C62.7284 35.8933 63.1428 35.0192 63.1428 33.4347V33.1979C63.1428 31.5835 62.8612 30.7243 61.5135 30.7243C60.3876 30.7243 59.7359 31.4352 59.7359 31.4352V35.3451C59.7359 35.3451 60.314 35.8933 61.4095 35.8933ZM59.7508 36.5157H59.7066C59.7066 36.5157 59.7359 37.4192 59.7359 37.9968V39.6704H58.2554V29.5099H59.4991L59.6916 30.3248H59.7359C59.7359 30.3248 60.4772 29.4357 61.9876 29.4357C63.898 29.4357 64.6538 30.7392 64.6538 33.0347V33.5979C64.6538 35.7749 63.7503 37.1819 61.81 37.1819C60.5508 37.1819 59.8548 36.6192 59.7508 36.5157Z" fill="black"/>
<path d="M69.0693 35.9375C70.313 35.9375 70.8608 35.2122 70.8608 33.4346V33.1834C70.8608 31.3909 70.313 30.6799 69.0693 30.6799C67.825 30.6799 67.2917 31.3909 67.2917 33.1834V33.4346C67.2917 35.2122 67.825 35.9375 69.0693 35.9375ZM65.7808 33.1087C65.7808 30.7685 66.8917 29.3914 69.0693 29.3914C71.2458 29.3914 72.3717 30.7685 72.3717 33.1087V33.5237C72.3717 35.849 71.2458 37.2261 69.0693 37.2261C66.8917 37.2261 65.7808 35.849 65.7808 33.5237V33.1087Z" fill="black"/>
<path d="M72.8462 29.51H74.1203V27.629H75.6014V29.51H76.875V30.7986H75.6014V34.9159C75.6014 35.5527 75.9123 35.8492 76.4009 35.8492H76.6825V37.1079H75.4089C75.4089 37.1079 74.1203 36.797 74.1203 35.005V30.7986H72.8462V29.51Z" fill="black"/>
<path d="M78.1798 29.51H79.6609V37.1079H78.1798V29.51ZM78.9201 26.222C79.5275 26.222 79.8385 26.5628 79.8385 27.0807V27.1996C79.8385 27.7175 79.5275 28.0434 78.9201 28.0434C78.3275 28.0434 78.0166 27.7175 78.0166 27.1996V27.0807C78.0166 26.5628 78.3275 26.222 78.9201 26.222Z" fill="black"/>
<path d="M82.0011 29.51V28.5474C82.0011 26.533 83.3339 26.1474 83.3339 26.1474H84.4897V27.4066H84.4305C83.8673 27.4066 83.4822 27.6732 83.4822 28.5474V29.51H84.7563V30.7986H83.4822V37.1079H82.0011V30.7986H80.7275V29.51H82.0011Z" fill="black"/>
<path d="M86.8006 38.4112C87.3782 38.4112 87.6742 38.2192 87.8817 37.5376L88.1041 36.7675H87.4075L85.2305 30.3984V29.5099H86.519L87.8961 33.6715C88.1483 34.4272 88.3851 35.4491 88.3851 35.4491H88.6374C88.6374 35.4491 88.8737 34.4272 89.1259 33.6715L90.503 29.5099H91.7323V30.4133L89.5553 36.7675L89.2294 37.8187C88.7409 39.4779 87.7926 39.6704 87.7926 39.6704H86.4155V38.4112H86.8006Z" fill="black"/>
<path d="M95.5698 30.8577C95.5698 28.1916 96.8136 26.9031 99.1832 26.9031C101.538 26.9031 102.235 28.3249 102.235 28.3249V29.4951H100.946C100.946 29.4951 100.872 28.2807 99.1981 28.2807C97.7026 28.2807 97.1101 29.0956 97.1101 30.7687V33.3756C97.1101 35.0492 97.7026 35.8641 99.1981 35.8641C100.872 35.8641 100.946 34.6492 100.946 34.6492H102.235V35.8193C102.235 35.8193 101.538 37.2412 99.1832 37.2412C96.8136 37.2412 95.5698 35.9527 95.5698 33.2871V30.8577Z" fill="black"/>
<path d="M107.76 35.2124V33.8204H105.996C105.064 33.8204 104.693 34.2642 104.693 34.8716C104.693 35.6418 105.019 35.982 105.996 35.982C107.211 35.982 107.76 35.2124 107.76 35.2124ZM103.804 29.9991C103.804 30.0135 104.723 29.421 106.411 29.421C108.366 29.421 109.225 30.2652 109.225 31.8498V37.1079H107.996L107.804 36.3079H107.76C107.76 36.3079 106.989 37.2119 105.537 37.2119C103.879 37.2119 103.242 36.3079 103.242 34.9308C103.242 33.509 104.042 32.709 105.923 32.709H107.76V31.8946C107.76 31.0946 107.33 30.7244 106.293 30.7244C105.242 30.7244 104.989 31.198 104.989 31.198H103.804V29.9991Z" fill="black"/>
<path d="M111.182 29.51H112.411L112.604 30.3543H112.648C112.648 30.3543 113.448 29.3916 115.003 29.3916C115.892 29.3916 116.574 29.7767 116.87 30.4578H116.914C116.914 30.4578 117.832 29.3916 119.462 29.3916C120.809 29.3916 121.565 30.1618 121.565 31.6727V37.1079H120.083V31.8498C120.083 31.0802 119.758 30.6652 118.854 30.6652C117.832 30.6652 117.121 31.4204 117.121 31.4204V37.1079H115.64V31.8498C115.64 31.0802 115.314 30.6652 114.396 30.6652C113.389 30.6652 112.663 31.4204 112.663 31.4204V37.1079H111.182V29.51Z" fill="black"/>
<path d="M126.691 35.8933C128.01 35.8933 128.424 35.0192 128.424 33.4347V33.1979C128.424 31.5835 128.142 30.7243 126.795 30.7243C125.669 30.7243 125.017 31.4352 125.017 31.4352V35.3451C125.017 35.3451 125.595 35.8933 126.691 35.8933ZM125.032 36.5157H124.988C124.988 36.5157 125.017 37.4192 125.017 37.9968V39.6704H123.537V29.5099H124.781L124.973 30.3248H125.017C125.017 30.3248 125.758 29.4357 127.269 29.4357C129.18 29.4357 129.935 30.7392 129.935 33.0347V33.5979C129.935 35.7749 129.032 37.1819 127.091 37.1819C125.832 37.1819 125.136 36.6192 125.032 36.5157Z" fill="black"/>
<path d="M134.365 27.0364H135.994L139.178 32.4722C139.445 32.9314 140.008 34.101 140.008 34.101H140.037C140.037 34.101 139.963 32.8578 139.963 31.7906V27.0364H141.459V37.1079H139.963V36.4418L136.764 30.9911C136.334 30.221 135.846 29.317 135.846 29.317H135.802C135.802 29.317 135.861 30.1911 135.861 31.1836V37.1079H134.365V27.0364Z" fill="black"/>
<path d="M146.406 35.9375C147.65 35.9375 148.198 35.2122 148.198 33.4346V33.1834C148.198 31.3909 147.65 30.6799 146.406 30.6799C145.162 30.6799 144.629 31.3909 144.629 33.1834V33.4346C144.629 35.2122 145.162 35.9375 146.406 35.9375ZM143.118 33.1087C143.118 30.7685 144.229 29.3914 146.406 29.3914C148.584 29.3914 149.709 30.7685 149.709 33.1087V33.5237C149.709 35.849 148.584 37.2261 146.406 37.2261C144.229 37.2261 143.118 35.849 143.118 33.5237V33.1087Z" fill="black"/>
<path d="M152.688 29.5098V34.7679C152.688 35.5381 153.088 35.9525 154.021 35.9525C155.088 35.9525 155.769 35.1973 155.769 35.1973V29.5098H157.25V37.1077H156.021L155.813 36.2783H155.784C155.784 36.2783 155.013 37.2261 153.414 37.2261C152.036 37.2261 151.207 36.4858 151.207 34.9599V29.5098H152.688Z" fill="black"/>
</svg>
